<svg xmlns="http://www.w3.org/2000/svg" viewBox="0 0 256 256" role="img" aria-label="Logo JB">
  <defs>
    <linearGradient id="jbMain" x1="0" y1="0" x2="1" y2="1">
      <stop offset="0%" stop-color="#1f4ea8"/>
      <stop offset="55%" stop-color="#8b5a3c"/>
      <stop offset="100%" stop-color="#8ccf2b"/>
    </linearGradient>
    <linearGradient id="jbSpark" x1="0" y1="0" x2="1" y2="1">
      <stop offset="0%" stop-color="#f0c419"/>
      <stop offset="100%" stop-color="#ff8a3d"/>
    </linearGradient>
  </defs>
  <path d="M118 52c0 15-12 27-27 27S64 67 64 52s12-27 27-27 27 12 27 27Z" fill="url(#jbMain)"/>
  <path d="M31 124c14-7 28-8 43-8 20 0 38 8 52 19 20 15 49 23 88 13-17 18-41 30-70 30-28 0-56-8-79-23-9-6-20-12-34-16Z" fill="url(#jbMain)"/>
  <path d="M64 167c18 21 44 34 73 34 34 0 63-15 84-40-9 3-19 5-30 5-29 0-50-9-67-22-11-8-23-15-37-17v40c0 12-8 19-20 19h-3Z" fill="url(#jbMain)"/>
  <path d="M129 84h29c28 0 44 14 44 33 0 14-9 24-24 29 18 4 29 15 29 31 0 23-19 36-49 36h-29V84Zm25 52h11c11 0 16-4 16-12 0-8-6-12-16-12h-11v24Zm0 49h13c11 0 18-4 18-13 0-9-7-13-18-13h-13v26Z" fill="#161616"/>
  <path d="M182 28l4 10 10 4-10 4-4 10-4-10-10-4 10-4 4-10Zm24 12 3 7 7 3-7 3-3 7-3-7-7-3 7-3 3-7Z" fill="url(#jbSpark)"/>
</svg>
